:SAMPLES-PER-SECOND 30
:FULLY-SPECIFIED
:DEGREES
273
root  -0.0437878 18.9268 12.8473 42.9154 -15.239 -2.99534
RightUpLeg  -25.7709 -2.46308 -2.22239
RightLeg  88.4912 16.8976 -19.5872
RightFoot  -13.1548 0.0358668 5.98912
RightToes  5.82077e-011 -3.18055e-015 -2.98177e-016
Spine  47.812 2.36017 -1.3621
Spine1  -11.9116 3.25235 -24.4535
HEad  -34.5989 -11.5364 1.48886
LeftShoulder1  -3.88251e-019 9.70628e-020 -3.87848e-018
LeftArm  -2.60317 -12.3221 -72.5684
LeftForeArm  33.2042 -4.60652 -9.12232
LeftHand  -14.1613 -12.0441 80.6536
RightShoulder  3.7144 9.97279 15.7705
RightArm  1.00228 23.2157 63.4667
RightForeArm  0.658723 5.00296 -6.46273
RightHand  -6.09796 5.14952 -60.3845
LeftUpLeg  -62.8394 6.08427 -16.7444
LeftLeg  124.68 -23.2272 13.2592
LeftFoot  6.10467 -0.268612 1.69762
LeftToes  9.37148e-011 4.50685e-012 -4.11107e-011
274
root  -0.0652507 18.8393 13.6133 45.0777 -15.13 -1.34098
RightUpLeg  -25.9517 -4.38788 -3.61083
RightLeg  85.7802 16.0244 -19.9534
RightFoot  -13.0215 0.0275561 6.13134
RightToes  5.82077e-011 -3.18055e-015 -2.98177e-016
Spine  46.0812 1.73268 -1.79707
Spine1  -11.9314 2.38913 -23.9213
HEad  -34.6498 -10.0042 2.57402
LeftShoulder1  -3.88251e-019 9.70628e-020 -3.87848e-018
LeftArm  -2.8636 -9.80484 -72.3312
LeftForeArm  33.478 -4.43298 -9.16021
LeftHand  -14.7391 -12.2194 82.3565
RightShoulder  3.93445 9.77544 17.3553
RightArm  0.88132 21.2818 63.7107
RightForeArm  0.549052 7.04291 -6.80366
RightHand  -8.10097 6.85619 -67.5678
LeftUpLeg  -63.1396 4.47688 -18.6603
LeftLeg  122.554 -23.1549 14.1051
LeftFoot  6.51751 -0.444822 2.68268
LeftToes  9.37148e-011 4.50685e-012 -4.11107e-011
275
root  -0.118371 18.7431 14.4176 47.6736 -13.7572 2.02089
RightUpLeg  -26.2303 -8.14464 -5.30246
RightLeg  83.1457 15.1335 -18.9819
RightFoot  -13.0924 0.033486 5.59733
RightToes  5.82077e-011 -3.18055e-015 -2.98177e-016
Spine  43.4347 0.210384 -3.07988
Spine1  -12.0113 0.0464617 -20.8886
HEad  -33.6416 -7.14221 3.5279
LeftShoulder1  -3.88251e-019 9.70628e-020 -3.87848e-018
LeftArm  -3.35219 -6.30324 -70.7799
LeftForeArm  33.211 -4.91951 -9.14842
LeftHand  -15.3577 -12.4529 83.9601
RightShoulder  4.1634 9.63829 18.9151
RightArm  1.93158 19.3791 64.5675
RightForeArm  1.35855 9.89148 -6.62188
RightHand  -8.80348 7.53422 -69.0127
LeftUpLeg  -63.6926 0.972437 -20.8017
LeftLeg  119.882 -23.1026 15.3193
LeftFoot  6.60601 -0.556309 3.30719
LeftToes  9.37148e-011 4.50685e-012 -4.11107e-011
276
root  -0.136061 18.6119 15.2482 50.9028 -10.6943 5.10729
RightUpLeg  -26.5677 -12.7177 -5.19241
RightLeg  80.286 14.2869 -17.6043
RightFoot  -12.2252 -0.0216011 6.27659
RightToes  5.82077e-011 -3.18055e-015 -2.98177e-016
Spine  39.4462 -2.33473 -2.66165
Spine1  -11.4006 -2.65155 -16.8868
HEad  -32.2238 -3.44648 4.40481
LeftShoulder1  -3.88251e-019 9.70628e-020 -3.87848e-018
LeftArm  -4.94846 -2.55052 -68.8213
LeftForeArm  33.3608 -5.38845 -8.73819
LeftHand  -15.3745 -12.4485 84.0329
RightShoulder  4.28672 9.66456 19.5947
RightArm  3.26883 17.9072 66.5537
RightForeArm  3.31733 10.9763 -5.92003
RightHand  -9.15448 7.85689 -69.7643
LeftUpLeg  -64.6785 -3.33696 -20.9976
LeftLeg  117.245 -23.0324 16.6297
LeftFoot  7.75129 -0.49685 2.82673
LeftToes  9.37148e-011 4.50685e-012 -4.11107e-011
277
root  -0.0956797 18.5191 16.057 54.0966 -7.33553 6.28539
RightUpLeg  -27.3432 -15.4671 -3.12932
RightLeg  77.6472 13.61 -16.5954
RightFoot  -9.17542 -0.282583 8.46572
RightToes  5.82077e-011 -3.18055e-015 -2.98177e-016
Spine  35.1248 -4.55566 -0.0821708
Spine1  -10.1196 -4.23315 -13.7721
HEad  -31.3056 0.308419 5.53911
LeftShoulder1  -3.88251e-019 9.70628e-020 -3.87848e-018
LeftArm  -6.99783 1.05202 -67.8725
LeftForeArm  33.6102 -6.07606 -7.80017
LeftHand  -14.4467 -12.2206 81.1797
RightShoulder  4.2312 9.66696 19.2655
RightArm  3.74865 16.8115 68.8413
RightForeArm  5.44801 10.5113 -5.36984
RightHand  -10.0836 8.53959 -72.3122
LeftUpLeg  -65.6701 -6.2187 -19.1374
LeftLeg  114.839 -22.9448 17.9302
LeftFoot  9.1312 -0.261954 1.46191
LeftToes  9.37148e-011 4.50685e-012 -4.11107e-011
278
root  -0.0110553 18.5331 16.817 56.5988 -5.57153 5.95688
RightUpLeg  -29.0767 -15.3436 -1.3493
RightLeg  76.5252 13.485 -15.189
RightFoot  -4.72725 -0.758342 10.3466
RightToes  5.82077e-011 -3.18055e-015 -2.98177e-016
Spine  32.0023 -5.36307 2.4951
Spine1  -9.30514 -4.48857 -11.8454
HEad  -30.9007 3.8024 6.9307
LeftShoulder1  -3.88251e-019 9.70628e-020 -3.87848e-018
LeftArm  -7.69084 5.02727 -67.9815
LeftForeArm  32.6419 -8.2869 -6.95488
LeftHand  -13.1586 -12.1539 76.1322
RightShoulder  4.06502 9.50801 18.5493
RightArm  3.49866 15.6707 70.5088
RightForeArm  7.42358 9.92938 -5.26288
RightHand  -11.0688 9.29627 -74.5923
LeftUpLeg  -66.1505 -7.10048 -17.4609
LeftLeg  112.42 -22.7274 19.169
LeftFoot  9.71851 -0.0323805 0.290521
LeftToes  9.37148e-011 4.50685e-012 -4.11107e-011
279
root  0.116838 18.6471 17.5316 58.3452 -5.51542 4.94902
RightUpLeg  -31.6694 -13.5351 -0.912008
RightLeg  77.8659 14.1772 -12.2024
RightFoot  -1.55815 -1.02121 9.97479
RightToes  5.82077e-011 -3.18055e-015 -2.98177e-016
Spine  30.6329 -5.09842 4.00635
Spine1  -9.60518 -3.99242 -10.4865
HEad  -30.5856 7.01694 8.04143
LeftShoulder1  -3.88251e-019 9.70628e-020 -3.87848e-018
LeftArm  -6.17142 9.7065 -68.157
LeftForeArm  30.0393 -12.6971 -6.52889
LeftHand  -12.3755 -12.4262 71.8739
RightShoulder  3.9111 9.3093 17.9558
RightArm  2.87516 14.2789 71.6133
RightForeArm  10.0942 9.48873 -5.49736
RightHand  -11.5632 9.74972 -75.3372
LeftUpLeg  -65.8369 -6.80922 -16.9408
LeftLeg  109.978 -22.2627 20.1027
LeftFoot  9.65271 0.0382032 -0.0568661
LeftToes  9.37148e-011 4.50685e-012 -4.11107e-011
280
root  0.24593 18.844 18.1854 59.0667 -5.68791 2.83795
RightUpLeg  -34.2468 -11.0127 -0.230423
RightLeg  81.2216 15.0771 -9.05952
RightFoot  -1.05157 -0.786519 7.27334
RightToes  5.82077e-011 -3.18055e-015 -2.98177e-016
Spine  30.9554 -4.30936 5.60356
Spine1  -10.2444 -2.85117 -9.11699
HEad  -30.5462 9.74783 8.36748
LeftShoulder1  -3.88251e-019 9.70628e-020 -3.87848e-018
LeftArm  -0.681853 13.9501 -68.0048
LeftForeArm  24.0814 -18.7449 -4.55778
LeftHand  -12.3008 -12.7756 70.4423
RightShoulder  3.77771 9.24859 17.251
RightArm  1.99374 13.0619 72.4395
RightForeArm  13.1705 9.08308 -6.04004
RightHand  -11.8853 10.0267 -75.863
LeftUpLeg  -64.5235 -5.29702 -15.9675
LeftLeg  107.825 -21.6123 20.5387
LeftFoot  9.77337 0.037956 -0.0535857
LeftToes  9.37148e-011 4.50685e-012 -4.11107e-011
281
root  0.438833 19.0431 18.7887 59.1877 -5.63193 0.377037
RightUpLeg  -37.0387 -9.15902 0.606212
RightLeg  85.9944 15.7829 -8.01796
RightFoot  -2.29923 -0.392905 4.10175
RightToes  5.82077e-011 -3.18055e-015 -2.98177e-016
Spine  31.326 -3.6769 8.17943
Spine1  -9.74946 -1.44256 -8.45796
HEad  -30.9724 11.5844 8.00251
LeftShoulder1  -3.88251e-019 9.70628e-020 -3.87848e-018
LeftArm  9.05539 16.213 -67.8068
LeftForeArm  13.6655 -24.7862 1.45419
LeftHand  -12.5029 -12.9401 70.828
RightShoulder  3.66673 9.37161 16.3892
RightArm  1.38138 12.374 72.4892
RightForeArm  15.1973 9.27929 -6.61298
RightHand  -12.2758 10.2689 -76.8124
LeftUpLeg  -62.6651 -3.42521 -14.9421
LeftLeg  105.531 -21.0992 21.4465
LeftFoot  10.5193 0.127949 -0.469513
LeftToes  9.37148e-011 4.50685e-012 -4.11107e-011
282
root  0.630626 19.239 19.3346 58.6829 -5.50394 -2.07687
RightUpLeg  -40.1279 -7.64841 1.48949
RightLeg  91.5947 16.6564 -9.70825
RightFoot  -3.76798 -0.143475 1.81773
RightToes  5.82077e-011 -3.18055e-015 -2.98177e-016
Spine  32.0923 -3.12863 11.0637
Spine1  -8.90276 0.109247 -8.41165
HEad  -31.3336 12.284 7.46588
LeftShoulder1  -3.88251e-019 9.70628e-020 -3.87848e-018
LeftArm  11.8755 15.6889 -67.1772
LeftForeArm  9.95941 -29.4338 6.84581
LeftHand  -12.4255 -12.9077 70.5842
RightShoulder  3.65128 9.53853 16.0408
RightArm  1.54791 11.99 71.2944
RightForeArm  15.9905 10.1601 -6.73754
RightHand  -12.5029 10.4003 -77.3791
LeftUpLeg  -60.383 -1.36053 -14.0272
LeftLeg  103.153 -20.7262 22.9227
LeftFoot  11.2013 0.336995 -1.42208
LeftToes  9.37148e-011 4.50685e-012 -4.11107e-011
283
root  0.727685 19.4238 19.8006 57.6577 -5.47312 -4.1409
RightUpLeg  -43.5997 -5.91476 2.36692
RightLeg  98.1227 18.1255 -11.8088
RightFoot  -5.78915 0.0169002 -0.0952565
RightToes  5.82077e-011 -3.18055e-015 -2.98177e-016
Spine  34.0836 -2.42072 12.6898
Spine1  -9.24894 1.51069 -7.66338
HEad  -31.1343 12.3692 6.94815
LeftShoulder1  -3.88251e-019 9.70628e-020 -3.87848e-018
LeftArm  7.40316 12.5064 -65.8578
LeftForeArm  12.515 -33.7463 8.08609
LeftHand  -12.0533 -12.8601 69.0864
RightShoulder  3.71501 9.58687 16.3484
RightArm  2.06198 11.5029 69.8255
RightForeArm  16.9733 10.7411 -6.44274
RightHand  -12.5491 10.4276 -77.4896
LeftUpLeg  -57.8341 0.677263 -13.1693
LeftLeg  101.098 -20.3609 24.3068
LeftFoot  11.373 0.549883 -2.39172
LeftToes  9.37148e-011 4.50685e-012 -4.11107e-011
